HIERARCHY
ROOT Hips
{
	OFFSET 0.000000 0.000000 0.000000
	CHANNELS 6 Xposition Yposition Zposition Zrotation Yrotation Xrotation 
	JOINT LowerBack
	{
		OFFSET 0.000000 0.000000 0.000000
		CHANNELS 3 Zrotation Yrotation Xrotation
		JOINT Spine
		{
			OFFSET 0.028270 2.035590 -0.193380
			CHANNELS 3 Zrotation Yrotation Xrotation
			JOINT Spine1
			{
				OFFSET 0.056720 2.048850 -0.042750
				CHANNELS 3 Zrotation Yrotation Xrotation
				JOINT Neck
				{
					OFFSET 0.000000 0.000000 0.000000
					CHANNELS 3 Zrotation Yrotation Xrotation
					JOINT Neck1
					{
						OFFSET -0.054170 1.746240 0.172020
						CHANNELS 3 Zrotation Yrotation Xrotation
						JOINT Head
						{
							OFFSET 0.104070 1.761360 -0.123970
							CHANNELS 3 Zrotation Yrotation Xrotation
							End Site
							{
								OFFSET 0.000000 0.000000 0.000000
							}
						}
					}
				}
				JOINT LeftShoulder
				{
					OFFSET 0.000000 0.000000 0.000000
					CHANNELS 3 Zrotation Yrotation Xrotation
					JOINT LeftArm
					{
						OFFSET 3.362410 1.200890 -0.311210
						CHANNELS 3 Zrotation Yrotation Xrotation
						JOINT LeftForeArm
						{
							OFFSET 4.983000 -0.000000 -0.000000
							CHANNELS 3 Zrotation Yrotation Xrotation
							JOINT LeftHand
							{
								OFFSET 3.483560 -0.000000 -0.000000
								CHANNELS 3 Zrotation Yrotation Xrotation
								JOINT LeftFingerBase
								{
									OFFSET 0.000000 0.000000 0.000000
									CHANNELS 3 Zrotation Yrotation Xrotation
									JOINT LeftHandIndex1
									{
										OFFSET 0.715260 -0.000000 -0.000000
										CHANNELS 3 Zrotation Yrotation Xrotation
										End Site
										{
											OFFSET 0.000000 0.000000 0.000000
										}
									}
								}
								JOINT LThumb
								{
									OFFSET 0.000000 0.000000 0.000000
									CHANNELS 3 Zrotation Yrotation Xrotation
									End Site
									{
										OFFSET 0.000000 0.000000 0.000000
									}
								}
							}
						}
					}
				}
				JOINT RightShoulder
				{
					OFFSET 0.000000 0.000000 0.000000
					CHANNELS 3 Zrotation Yrotation Xrotation
					JOINT RightArm
					{
						OFFSET -3.136600 1.374050 -0.404650
						CHANNELS 3 Zrotation Yrotation Xrotation
						JOINT RightForeArm
						{
							OFFSET -5.241900 -0.000000 -0.000000
							CHANNELS 3 Zrotation Yrotation Xrotation
							JOINT RightHand
							{
								OFFSET -3.444170 -0.000000 -0.000000
								CHANNELS 3 Zrotation Yrotation Xrotation
								JOINT RightFingerBase
								{
									OFFSET 0.000000 0.000000 0.000000
									CHANNELS 3 Zrotation Yrotation Xrotation
									JOINT RightHandIndex1
									{
										OFFSET -0.622530 -0.000000 -0.000000
										CHANNELS 3 Zrotation Yrotation Xrotation
										End Site
										{
											OFFSET 0.000000 0.000000 0.000000
										}
									}
								}
								JOINT RThumb
								{
									OFFSET 0.000000 0.000000 0.000000
									CHANNELS 3 Zrotation Yrotation Xrotation
									End Site
									{
										OFFSET 0.000000 0.000000 0.000000
									}
								}
							}
						}
					}
				}
			}
		}
	}
}
}
MOTION
Frames: 17
Frame Time: 0.008333
2.834794 16.728921 4.040801 7.449413 35.700765 24.713999 3.682361 -1.812561 9.015768 -0.280736 -1.624203 -0.101006 -6.534288 -1.626218 2.308564 8.642269 3.341529 5.745709 -4.794678 -0.400695 3.023913 0.000000 0.000000 0.000000 -1.534491 -7.856146 2.422515 -17.164192 -35.523795 -12.362908 -1.773122 -33.190861 -0.033331 7.376649 -3.224700 -0.232136 -0.125610 0.322412 -0.000000 0.000000 0.000000 0.000000 0.000000 0.000000 0.000000 19.901865 -1.793275 0.070758 43.729072 17.207317 -13.415168 2.060137 32.485045 0.003084 -2.852369 9.648670 -0.247756 0.050105 -0.118148 0.000000 0.000000 0.000000 0.000000 0.000000 0.000000 0.000000 
2.888433 16.706317 4.177686 7.239942 35.540691 24.495774 4.146582 -1.785354 9.151970 -0.186095 -1.601827 -0.086373 -6.559355 -1.609011 2.279584 8.708531 3.569827 5.811633 -4.811127 -0.401036 3.041290 0.000000 0.000000 0.000000 -1.730161 -7.752053 2.411325 -17.937610 -35.402676 -11.694837 -1.789760 -33.789947 -0.033769 7.549404 -3.307599 -0.243023 -0.127717 0.320947 -0.000000 0.000000 0.000000 0.000000 0.000000 0.000000 0.000000 20.017868 -1.603923 0.090207 43.727971 16.957915 -14.130891 2.071717 31.933296 0.002854 -3.103094 9.655615 -0.269460 0.051461 -0.117129 -0.000000 0.000000 0.000000 0.000000 0.000000 0.000000 0.000000 
2.938994 16.688243 4.313075 6.990915 35.382882 24.253052 4.608300 -1.758246 9.307006 -0.091022 -1.578227 -0.070117 -6.578277 -1.591055 2.241825 8.817362 3.856946 5.914011 -4.813603 -0.400835 3.068447 0.000000 0.000000 0.000000 -1.882317 -7.692096 2.393327 -18.869648 -35.213659 -11.004171 -1.805164 -34.430372 -0.034307 7.749883 -3.372605 -0.253810 -0.130001 0.318974 -0.000000 0.000000 0.000000 0.000000 0.000000 0.000000 0.000000 20.103605 -1.355785 0.110733 43.825726 16.745786 -14.925077 2.083535 31.236462 0.002559 -3.393214 9.608707 -0.292965 0.053013 -0.115765 -0.000000 0.000000 0.000000 0.000000 0.000000 0.000000 0.000000 
2.986214 16.674331 4.447392 6.721110 35.225580 24.003861 5.046781 -1.732126 9.472496 -0.000050 -1.554217 -0.050201 -6.591344 -1.572535 2.207939 8.974194 4.172569 6.036646 -4.802805 -0.400033 3.100794 0.000000 0.000000 0.000000 -2.019782 -7.622410 2.367194 -19.882730 -35.050421 -10.256108 -1.820533 -35.049160 -0.034867 7.964402 -3.429598 -0.264697 -0.132547 0.316719 -0.000000 0.000000 0.000000 0.000000 0.000000 0.000000 0.000000 20.170319 -1.078165 0.127773 44.021404 16.610365 -15.771291 2.095250 30.393912 0.002187 -3.729892 9.500526 -0.318170 0.054801 -0.113981 0.000000 0.000000 0.000000 0.000000 0.000000 0.000000 0.000000 
3.029888 16.664106 4.581097 6.452535 35.068141 23.765392 5.441366 -1.707783 9.638798 0.082456 -1.530758 -0.027928 -6.598535 -1.554125 2.180965 9.182259 4.504764 6.175297 -4.778805 -0.398664 3.137262 0.000000 0.000000 0.000000 -2.146786 -7.540647 2.334779 -20.951300 -34.917862 -9.435427 -1.837495 -35.640781 -0.035295 8.166486 -3.477865 -0.274784 -0.135235 0.314089 -0.000000 0.000000 0.000000 0.000000 0.000000 0.000000 0.000000 20.222237 -0.781216 0.140143 44.318951 16.552649 -16.655315 2.106047 29.424553 0.001734 -4.110786 9.324274 -0.343876 0.056766 -0.111769 -0.000000 0.000000 0.000000 0.000000 0.000000 0.000000 0.000000 
3.069898 16.657058 4.714527 6.205492 34.910686 23.550764 5.773969 -1.684395 9.795862 0.152961 -1.507383 -0.007888 -6.598705 -1.535476 2.153830 9.441948 4.847865 6.337381 -4.742263 -0.396926 3.180224 0.000000 0.000000 0.000000 -2.235071 -7.510376 2.298641 -22.112704 -34.713926 -8.557612 -1.856749 -36.263460 -0.035361 8.316982 -3.508559 -0.281870 -0.137629 0.310623 -0.000000 0.000000 0.000000 0.000000 0.000000 0.000000 0.000000 20.260706 -0.470303 0.151293 44.720982 16.553376 -17.560062 2.115624 28.352214 0.001194 -4.531164 9.079178 -0.368783 0.058840 -0.109203 0.000000 0.000000 0.000000 0.000000 0.000000 0.000000 0.000000 
3.106278 16.652771 4.848146 5.999223 34.750906 23.374969 6.030166 -1.662592 9.937623 0.208104 -1.484903 0.011689 -6.593985 -1.516765 2.136804 9.750067 5.179668 6.505862 -4.695193 -0.394822 3.224782 0.000000 0.000000 0.000000 -2.323735 -7.477427 2.261010 -23.282489 -34.529106 -7.594016 -1.880562 -36.859882 -0.034970 8.395731 -3.532029 -0.286053 -0.139785 0.306575 -0.000000 0.000000 0.000000 0.000000 0.000000 0.000000 0.000000 20.295449 -0.164664 0.157554 45.220636 16.632775 -18.460369 2.123863 27.194059 0.000581 -4.983405 8.772093 -0.391591 0.060947 -0.106326 -0.000000 0.000000 0.000000 0.000000 0.000000 0.000000 0.000000 
3.139226 16.651005 4.982223 5.845448 34.585445 23.246531 6.202787 -1.641513 10.058487 0.246326 -1.462795 0.029175 -6.585361 -1.497361 2.129004 10.099555 5.493345 6.677213 -4.639378 -0.392469 3.270007 0.000000 0.000000 0.000000 -2.419467 -7.450167 2.225313 -24.445228 -34.347167 -6.547275 -1.910373 -37.437962 -0.033992 8.376048 -3.548676 -0.286234 -0.141500 0.301836 -0.000000 0.000000 0.000000 0.000000 0.000000 0.000000 0.000000 20.328669 0.131219 0.159729 45.812535 16.781371 -19.335838 2.130846 25.975752 -0.000096 -5.453616 8.413506 -0.410901 0.062983 -0.103249 -0.000000 0.000000 0.000000 0.000000 0.000000 0.000000 0.000000 
3.169077 16.651611 5.116778 5.748745 34.409568 23.169654 6.291211 -1.619447 10.154047 0.267668 -1.439735 0.042283 -6.572859 -1.476053 2.126415 10.478692 5.779001 6.850121 -4.577427 -0.390043 3.315653 0.000000 0.000000 0.000000 -2.515150 -7.458486 2.193379 -25.613702 -34.114449 -5.439455 -1.946326 -38.027544 -0.032322 8.232768 -3.557287 -0.281612 -0.142437 0.296218 -0.000000 0.000000 0.000000 0.000000 0.000000 0.000000 0.000000 20.360921 0.408122 0.160561 46.486371 16.998010 -20.156574 2.137667 24.711567 -0.000804 -5.927852 8.022753 -0.425709 0.064896 -0.100132 -0.000000 0.000000 0.000000 0.000000 0.000000 0.000000 0.000000 
3.196359 16.654626 5.251841 5.708050 34.215715 23.146872 6.300859 -1.595271 10.222774 0.273084 -1.414849 0.051281 -6.558230 -1.451877 2.131019 10.873947 6.034564 7.016167 -4.511287 -0.387577 3.359301 0.000000 0.000000 0.000000 -2.635722 -7.475887 2.168358 -26.750075 -33.865723 -4.268713 -1.989686 -38.605851 -0.029974 7.959972 -3.563329 -0.272388 -0.142614 0.289854 -0.000000 0.000000 0.000000 0.000000 0.000000 0.000000 0.000000 20.390840 0.667485 0.159019 47.233589 17.276306 -20.900846 2.144810 23.426893 -0.001512 -6.383214 7.617029 -0.435119 0.066588 -0.097080 0.000000 0.000000 0.000000 0.000000 0.000000 0.000000 0.000000 
3.221613 16.660213 5.387178 5.715830 33.995748 23.176112 6.242787 -1.567242 10.264429 0.264885 -1.386623 0.055694 -6.542336 -1.423445 2.141401 11.269745 6.263047 7.171231 -4.442624 -0.385119 3.399821 0.000000 0.000000 0.000000 -2.793833 -7.492837 2.152624 -27.843353 -33.606757 -3.043251 -2.040958 -39.166510 -0.027005 7.558659 -3.571035 -0.258861 -0.142030 0.282811 -0.000000 0.000000 0.000000 0.000000 0.000000 0.000000 0.000000 20.413240 0.915443 0.155293 48.045515 17.603677 -21.547281 2.153062 22.147011 -0.002176 -6.794069 7.214031 -0.438529 0.067996 -0.094192 -0.000000 0.000000 0.000000 0.000000 0.000000 0.000000 0.000000 
3.245479 16.668635 5.522545 5.759698 33.741807 23.252039 6.130882 -1.533857 10.280737 0.246136 -1.353678 0.054921 -6.525035 -1.389665 2.154225 11.649203 6.462090 7.313095 -4.373784 -0.382760 3.436681 0.000000 0.000000 0.000000 -2.985696 -7.518318 2.146019 -28.909834 -33.308386 -1.788578 -2.099104 -39.723369 -0.023511 7.035688 -3.580823 -0.241232 -0.140620 0.275074 -0.000000 0.000000 0.000000 0.000000 0.000000 0.000000 0.000000 20.423864 1.149837 0.150911 48.910169 17.982884 -22.063583 2.164218 20.879347 -0.002747 -7.139491 6.835870 -0.436738 0.069145 -0.091560 0.000000 0.000000 0.000000 0.000000 0.000000 0.000000 0.000000 
3.268505 16.680132 5.657566 5.824858 33.445928 23.367274 5.980887 -1.494043 10.274647 0.220141 -1.314990 0.049100 -6.506775 -1.349733 2.167650 11.997525 6.639257 7.439377 -4.305829 -0.380510 3.469275 0.000000 0.000000 0.000000 -3.218481 -7.538953 2.149087 -29.947767 -32.978204 -0.514837 -2.163618 -40.267289 -0.019654 6.412974 -3.595762 -0.220502 -0.138565 0.266775 -0.000000 0.000000 0.000000 0.000000 0.000000 0.000000 0.000000 20.415773 1.380411 0.145472 49.821159 18.401181 -22.428266 2.179271 19.646730 -0.003179 -7.393192 6.495127 -0.429746 0.070026 -0.089201 -0.000000 0.000000 0.000000 0.000000 0.000000 0.000000 0.000000 
3.291150 16.694983 5.791948 5.896174 33.102248 23.513207 5.808088 -1.447182 10.250215 0.190153 -1.269911 0.038372 -6.487558 -1.303260 2.179042 12.302493 6.801523 7.549391 -4.239655 -0.378381 3.497501 0.000000 0.000000 0.000000 -3.491537 -7.548442 2.161061 -30.966182 -32.612626 0.764155 -2.233320 -40.793887 -0.015623 5.719395 -3.617337 -0.197571 -0.136082 0.258036 -0.000000 0.000000 0.000000 0.000000 0.000000 0.000000 0.000000 20.383284 1.614977 0.138846 50.773028 18.849266 -22.618690 2.199349 18.467196 -0.003428 -7.532860 6.201118 -0.418053 0.070653 -0.087100 -0.000000 0.000000 0.000000 0.000000 0.000000 0.000000 0.000000 
3.313764 16.713329 5.925403 5.959909 32.707324 23.681680 5.625482 -1.393188 10.211505 0.158915 -1.218299 0.022945 -6.467279 -1.250334 2.185954 12.555110 6.955347 7.643202 -4.175889 -0.376380 3.521478 0.000000 0.000000 0.000000 -3.800459 -7.541375 2.180304 -31.976104 -32.207479 2.036130 -2.306669 -41.298614 -0.011607 4.988775 -3.645321 -0.173540 -0.133438 0.248987 -0.000000 0.000000 0.000000 0.000000 0.000000 0.000000 0.000000 20.322196 1.860061 0.130688 51.762442 19.318932 -22.613773 2.225492 17.357321 -0.003465 -7.540178 5.957789 -0.402158 0.071041 -0.085212 0.000000 0.000000 0.000000 0.000000 0.000000 0.000000 0.000000 
3.336537 16.735251 6.057799 6.005518 32.259956 23.865142 5.442594 -1.332446 10.162287 0.128401 -1.160460 0.003012 -6.445796 -1.191447 2.186109 12.750530 7.106321 7.721492 -4.114883 -0.374510 3.541498 0.000000 0.000000 0.000000 -4.137828 -7.513802 2.204628 -32.988357 -31.758685 3.290857 -2.381988 -41.774901 -0.007782 4.257021 -3.679080 -0.149410 -0.130923 0.239764 0.000000 0.000000 0.000000 0.000000 0.000000 0.000000 0.000000 20.230440 2.120638 0.120462 52.788481 19.801776 -22.395750 2.258435 16.333715 -0.003275 -7.402163 5.764305 -0.382062 0.071170 -0.083471 -0.000000 0.000000 0.000000 0.000000 0.000000 0.000000 0.000000 
3.359535 16.760624 6.189035 6.026673 31.761685 24.058128 5.264502 -1.265786 10.105581 0.099592 -1.097122 -0.021246 -6.423043 -1.127449 2.177710 12.887996 7.257967 7.785234 -4.056900 -0.372774 3.557910 0.000000 0.000000 0.000000 -4.494278 -7.463415 2.231473 -34.012650 -31.263183 4.520612 -2.457551 -42.215602 -0.004288 3.558858 -3.717382 -0.126279 -0.128807 0.230505 0.000000 0.000000 0.000000 0.000000 0.000000 0.000000 0.000000 20.108781 2.398772 0.107517 53.851906 20.290554 -21.950975 2.298572 15.411682 -0.002857 -7.111770 5.615940 -0.357762 0.070989 -0.081805 -0.000000 0.000000 0.000000 0.000000 0.000000 0.000000 0.000000 
